<svg xmlns="http://www.w3.org/2000/svg" width="156.022" height="72.575" viewBox="0 0 156.022 72.575"><path d="M252.1,423.736c0-6.067-6.091-11.01-13.58-11.01H109.663c-7.488,0-13.583,4.943-13.583,11.01v1.077a9.168,9.168,0,0,0,1.13,4.371,2.643,2.643,0,0,0,.036,1.269l13.2,44.25c3.277,8.76,7.844,10.6,11.1,10.6H227.029c3.255,0,7.819-1.841,11.159-10.772l13.135-44.076a2.669,2.669,0,0,0-.139-1.756,9.123,9.123,0,0,0,.917-3.888v-1.073Zm-150.688,0c0-3.074,3.778-5.679,8.252-5.679H238.519c4.474,0,8.249,2.6,8.249,5.679v1.077c0,3.081-3.774,5.679-8.249,5.679H109.663c-4.474,0-8.252-2.594-8.252-5.679Zm131.727,49.1c-1,2.666-3.12,7.136-6.109,7.136H121.541c-2.992,0-5.111-4.471-6.049-6.962l-11.27-37.81a10.682,10.682,0,0,0,3.43.625H240.918a10.442,10.442,0,0,0,3.43-.633Z" transform="translate(-96.08 -412.726)"/></svg>