<svg xmlns="http://www.w3.org/2000/svg" width="31.048" height="22.796" viewBox="0 0 31.048 22.796"><g transform="translate(0.015 0)"><path d="M567.866-882.2H551.86a.613.613,0,0,1-.605-.62.613.613,0,0,1,.605-.605h16.006a2.247,2.247,0,0,0,2.247-2.247,2.247,2.247,0,0,0-2.247-2.247.613.613,0,0,1-.605-.62.613.613,0,0,1,.605-.605,3.472,3.472,0,0,1,3.472,3.472,3.472,3.472,0,0,1-3.472,3.472Z" transform="translate(-551.254 889.148)" fill="#fff"/></g><g transform="translate(0.008 15.851)"><path d="M567.792-705.909a.613.613,0,0,1-.613-.613.613.613,0,0,1,.613-.613,2.247,2.247,0,0,0,2.247-2.247,2.247,2.247,0,0,0-2.247-2.247H551.786a.613.613,0,0,1-.613-.613.613.613,0,0,1,.613-.613h16.006a3.472,3.472,0,0,1,3.472,3.472,3.472,3.472,0,0,1-3.472,3.472Z" transform="translate(-551.173 712.854)" fill="#fff"/></g><g transform="translate(0 5.114)"><path d="M578.658-825.325H551.7a.613.613,0,0,1-.613-.613.613.613,0,0,1,.613-.613h26.963a2.247,2.247,0,0,0,2.247-2.247,2.247,2.247,0,0,0-2.247-2.247.613.613,0,0,1-.613-.613.613.613,0,0,1,.613-.613,3.472,3.472,0,0,1,3.472,3.472,3.472,3.472,0,0,1-3.472,3.472Z" transform="translate(-551.083 832.27)" fill="#fff"/></g></svg>