<svg xmlns="http://www.w3.org/2000/svg" width="160.232" height="64.348" viewBox="0 0 160.232 64.348"><path d="M159.348,2.372A5.379,5.379,0,0,0,154.851,0L80.124.049,5.4,0A5.379,5.379,0,0,0,.9,2.372,5.416,5.416,0,0,0,.356,7.216l14.53,51.7.049.1a8.633,8.633,0,0,0,8.006,5.338H75.824V62.371H22.942a6.65,6.65,0,0,1-6.178-4.053L2.283,6.623l-.049-.1a3.266,3.266,0,0,1,.3-3.015A3.406,3.406,0,0,1,5.4,2.026l74.727.049,74.727-.1a3.471,3.471,0,0,1,2.867,1.483,3.13,3.13,0,0,1,.3,3.015v.049l-14.58,51.745a6.6,6.6,0,0,1-6.178,4.053H84.374V64.3h52.882a8.51,8.51,0,0,0,8.006-5.338v-.049l14.58-51.745A4.906,4.906,0,0,0,159.348,2.372Z" transform="translate(-0.02)" fill="#fff"/></svg>