<svg xmlns="http://www.w3.org/2000/svg" width="27.138" height="23.693" viewBox="0 0 27.138 23.693"><g transform="translate(0 4.226)"><path d="M988.012-823.039H967.217a.586.586,0,0,1-.585-.585c0-4.821,4.926-8.743,10.983-8.743s10.983,3.922,10.983,8.743A.586.586,0,0,1,988.012-823.039Zm-20.18-1.171H987.4c-.389-3.9-4.628-6.987-9.783-6.987S968.221-828.113,967.832-824.21Z" transform="translate(-966.632 832.368)" fill="#fff"/></g><g transform="translate(4.114 20.876)"><path d="M1015.3-636.81a.78.78,0,0,1-.781-.78h0v-.165a.781.781,0,0,1,.781-.781.781.781,0,0,1,.781.781v.165a.78.78,0,0,1-.78.781Z" transform="translate(-1014.522 638.536)" fill="#fff"/></g><g transform="translate(15.276 20.876)"><path d="M1145.253-636.81a.78.78,0,0,1-.78-.779h0v-.165a.78.78,0,0,1,.78-.781.781.781,0,0,1,.781.781v.165a.78.78,0,0,1-.78.781Z" transform="translate(-1144.472 638.536)" fill="#fff"/></g><g transform="translate(4.114 17.019)"><path d="M1015.3-681.7a.78.78,0,0,1-.781-.78h0v-.163a.781.781,0,0,1,.781-.781.781.781,0,0,1,.781.781v.163a.78.78,0,0,1-.78.781Z" transform="translate(-1014.522 683.429)" fill="#fff"/></g><g transform="translate(15.276 17.019)"><path d="M1145.253-681.7a.78.78,0,0,1-.78-.779h0v-.163a.781.781,0,0,1,.78-.781.781.781,0,0,1,.781.781v.163a.78.78,0,0,1-.78.781Z" transform="translate(-1144.472 683.429)" fill="#fff"/></g><g transform="translate(9.695 20.876)"><path d="M1080.276-636.81a.78.78,0,0,1-.781-.78h0v-.165a.781.781,0,0,1,.781-.781.781.781,0,0,1,.781.781v.165a.781.781,0,0,1-.78.781Z" transform="translate(-1079.496 638.536)" fill="#fff"/></g><g transform="translate(9.695 17.019)"><path d="M1080.276-681.7a.78.78,0,0,1-.781-.78h0v-.163a.781.781,0,0,1,.781-.781.781.781,0,0,1,.781.781v.163a.78.78,0,0,1-.78.781Z" transform="translate(-1079.496 683.429)" fill="#fff"/></g><path d="M1092.575-881.566a8.991,8.991,0,0,0-8.02,4.915h1.34a7.816,7.816,0,0,1,6.673-3.745,7.822,7.822,0,0,1,7.824,7.819v14.119a.585.585,0,0,0,.585.585.586.586,0,0,0,.586-.585v-14.119A8.992,8.992,0,0,0,1092.575-881.566Z" transform="translate(-1074.426 881.566)" fill="#fff"/></svg>