<svg xmlns="http://www.w3.org/2000/svg" width="127.697" height="132.918" viewBox="0 0 127.697 132.918"><path d="M97.286,9.8A40.986,40.986,0,0,0,56.345,50.742a2.616,2.616,0,0,0,.263,1.116C30.87,53.46,10.534,70.612,10.534,91.505A2.666,2.666,0,0,0,13.2,94.171h94.677a2.666,2.666,0,0,0,2.665-2.665c0-21.693-21.931-39.367-49.069-39.769a2.66,2.66,0,0,0,.2-1,35.612,35.612,0,0,1,71.225,0v89.311a2.665,2.665,0,0,0,5.331,0V50.738A40.989,40.989,0,0,0,97.286,9.8Zm7.8,79.04H16c1.77-17.77,21.071-31.811,44.538-31.811S103.314,71.07,105.083,88.84Z" transform="translate(-10.534 -9.8)"/><path d="M19.359,42.919a3.558,3.558,0,0,0-3.554,3.554v.75a3.554,3.554,0,0,0,7.108,0v-.75A3.558,3.558,0,0,0,19.359,42.919Z" transform="translate(2.928 74.784)"/><path d="M33.658,42.919A3.558,3.558,0,0,0,30.1,46.473v.75a3.554,3.554,0,0,0,7.108,0v-.75A3.558,3.558,0,0,0,33.658,42.919Z" transform="translate(39.447 74.784)"/><path d="M19.359,37.979a3.558,3.558,0,0,0-3.554,3.554v.743a3.554,3.554,0,0,0,7.108,0v-.743A3.56,3.56,0,0,0,19.359,37.979Z" transform="translate(2.928 62.168)"/><path d="M33.658,37.979A3.558,3.558,0,0,0,30.1,41.533v.743a3.554,3.554,0,0,0,7.108,0v-.743A3.56,3.56,0,0,0,33.658,37.979Z" transform="translate(39.447 62.168)"/><path d="M26.509,42.919a3.558,3.558,0,0,0-3.554,3.554v.75a3.554,3.554,0,0,0,7.108,0v-.75A3.555,3.555,0,0,0,26.509,42.919Z" transform="translate(21.189 74.784)"/><path d="M26.509,37.979a3.558,3.558,0,0,0-3.554,3.554v.743a3.554,3.554,0,0,0,7.108,0v-.743A3.558,3.558,0,0,0,26.509,37.979Z" transform="translate(21.189 62.168)"/></svg>