<svg xmlns="http://www.w3.org/2000/svg" width="36.673" height="26.926" viewBox="0 0 36.673 26.926"><g transform="translate(0.018 0)"><path d="M570.876-880.945H551.97a.724.724,0,0,1-.715-.733.724.724,0,0,1,.715-.715h18.906a2.654,2.654,0,0,0,2.654-2.654,2.654,2.654,0,0,0-2.654-2.654.724.724,0,0,1-.715-.733.724.724,0,0,1,.715-.715,4.1,4.1,0,0,1,4.1,4.1,4.1,4.1,0,0,1-4.1,4.1Z" transform="translate(-551.254 889.148)"/></g><g transform="translate(0.01 18.723)"><path d="M570.8-704.651a.724.724,0,0,1-.724-.724.724.724,0,0,1,.724-.724,2.654,2.654,0,0,0,2.654-2.654,2.654,2.654,0,0,0-2.654-2.654H551.9a.724.724,0,0,1-.724-.724.724.724,0,0,1,.724-.724H570.8a4.1,4.1,0,0,1,4.1,4.1,4.1,4.1,0,0,1-4.1,4.1Z" transform="translate(-551.173 712.854)"/></g><g transform="translate(0 6.041)"><path d="M583.655-824.067H551.807a.724.724,0,0,1-.724-.724.724.724,0,0,1,.724-.724h31.848a2.654,2.654,0,0,0,2.654-2.654,2.654,2.654,0,0,0-2.654-2.654.724.724,0,0,1-.724-.724.724.724,0,0,1,.724-.724,4.1,4.1,0,0,1,4.1,4.1,4.1,4.1,0,0,1-4.1,4.1Z" transform="translate(-551.083 832.27)"/></g></svg>