<svg xmlns="http://www.w3.org/2000/svg" width="35.352" height="17.073" viewBox="0 0 35.352 17.073"><path d="M-539.583-956l.087-.309h-.033c0-.049.007-.1.007-.147a2.629,2.629,0,0,0-1.753-2.2,8.809,8.809,0,0,0-3.808-.786c-.144,0-.289,0-.433.009a.432.432,0,0,0-.091-.009h-23.117a.476.476,0,0,0-.093.009c-.144-.006-.289-.009-.433-.009a8.809,8.809,0,0,0-3.808.786,2.637,2.637,0,0,0-1.752,2.2c0,.049,0,.1.007.147h-.043l3.429,12.137.023.075a.475.475,0,0,0,.135.195,2.266,2.266,0,0,0,.652.625,4.474,4.474,0,0,0,1.005.487,8.154,8.154,0,0,0,2.573.416h.094c.115,0,.232,0,.349-.006a.6.6,0,0,0,.074.006h8.523v-.94h-8.428a.518.518,0,0,0-.1-.01h-.014c-.131.006-.266.01-.4.01-1.671,0-3.2-.495-3.571-1.153l-.006-.011a.428.428,0,0,0-.032-.051l-2.788-9.868c.087.05.177.1.272.146a9.065,9.065,0,0,0,4.241.777.448.448,0,0,0,.087.009h23.121a.427.427,0,0,0,.094-.009c.144.006.29.009.433.009a8.812,8.812,0,0,0,3.808-.786c.09-.045.175-.091.259-.139l-2.772,9.806a.418.418,0,0,0-.074.1c-.358.665-1.9,1.167-3.578,1.167-.134,0-.268,0-.4-.01h-.021a.519.519,0,0,0-.1.01h-8.427v.94h8.532a.546.546,0,0,0,.068-.006c.114,0,.232.006.348.006h.091a8.185,8.185,0,0,0,2.561-.41,4.513,4.513,0,0,0,1-.477,2.314,2.314,0,0,0,.644-.6.47.47,0,0,0,.2-.237l3.353-11.864Zm-.927-.178a2.193,2.193,0,0,1-1.181,1.083,7.823,7.823,0,0,1-3.392.69c-.09,0-.174,0-.254,0v-.008l-.266,0a.512.512,0,0,0-.118.014h-22.9a.492.492,0,0,0-.126-.013h-.009c-.147.009-.31.013-.5.013a7.826,7.826,0,0,1-3.392-.69c-.792-.393-1.229-.876-1.229-1.361s.436-.967,1.229-1.361a7.824,7.824,0,0,1,3.392-.69c.187,0,.35,0,.5.013h.012a.506.506,0,0,0,.122-.013h22.9a.5.5,0,0,0,.126.013h.009c.146-.009.309-.013.5-.013a7.827,7.827,0,0,1,3.392.69c.792.393,1.229.876,1.229,1.361a.833.833,0,0,1-.02.179Z" transform="translate(574.847 959.443)" fill="#fff"/></svg>